<svg width="24" height="23" viewBox="0 0 24 23" fill="none" xmlns="http://www.w3.org/2000/svg">
<path id="Vector 477" d="M8.65792 6.99794L10.9298 1.92098C11.274 1.15183 12.3569 1.12713 12.7358 1.87978L15.3317 7.03617C15.4857 7.34198 15.7854 7.54777 16.1261 7.58161L21.6929 8.1345C22.5656 8.22117 22.912 9.30916 22.25 9.88441L17.6978 13.8405C17.4287 14.0743 17.3045 14.4336 17.3716 14.7837L18.5081 20.7095C18.6737 21.5728 17.7248 22.2143 16.9854 21.7391L12.315 18.7377C11.9934 18.5311 11.5822 18.5258 11.2555 18.7241L6.261 21.7555C5.50129 22.2166 4.56252 21.5317 4.7697 20.6675L6.17942 14.787C6.26366 14.4356 6.15179 14.0662 5.8868 13.8205L1.62798 9.87273C0.996006 9.2869 1.35146 8.22941 2.20897 8.14425L7.84398 7.58459C8.20086 7.54914 8.51143 7.3253 8.65792 6.99794Z" fill="#F8D03F" stroke="#F8D03F"/>
</svg>
