<svg width="22" height="22" viewBox="0 0 22 22" fill="none" xmlns="http://www.w3.org/2000/svg">
<g id="octicon:person-24">
<g id="Group">
<path id="Vector" d="M14.4375 8.7085C14.4375 9.62018 14.0753 10.4945 13.4307 11.1392C12.786 11.7838 11.9117 12.146 11 12.146C10.0883 12.146 9.21398 11.7838 8.56932 11.1392C7.92466 10.4945 7.5625 9.62018 7.5625 8.7085C7.5625 7.79681 7.92466 6.92247 8.56932 6.27782C9.21398 5.63316 10.0883 5.271 11 5.271C11.9117 5.271 12.786 5.63316 13.4307 6.27782C14.0753 6.92247 14.4375 7.79681 14.4375 8.7085Z" fill="#CCCCCC"/>
<path id="Vector_2" fill-rule="evenodd" clip-rule="evenodd" d="M1.83331 11.0002C1.83331 8.56901 2.79908 6.23743 4.51817 4.51835C6.23725 2.79927 8.56883 1.8335 11 1.8335C13.4311 1.8335 15.7627 2.79927 17.4818 4.51835C19.2009 6.23743 20.1666 8.56901 20.1666 11.0002C20.1666 13.4313 19.2009 15.7629 17.4818 17.482C15.7627 19.2011 13.4311 20.1668 11 20.1668C8.56883 20.1668 6.23725 19.2011 4.51817 17.482C2.79908 15.7629 1.83331 13.4313 1.83331 11.0002ZM11 2.97933C9.48952 2.97941 8.00977 3.40599 6.73107 4.20999C5.45236 5.01398 4.42666 6.1627 3.77202 7.52393C3.11739 8.88516 2.86042 10.4036 3.03071 11.9044C3.20099 13.4052 3.7916 14.8275 4.73456 16.0075C5.5481 14.6966 7.33904 13.2918 11 13.2918C14.6609 13.2918 16.4507 14.6955 17.2654 16.0075C18.2084 14.8275 18.799 13.4052 18.9693 11.9044C19.1395 10.4036 18.8826 8.88516 18.2279 7.52393C17.5733 6.1627 16.5476 5.01398 15.2689 4.20999C13.9902 3.40599 12.5104 2.97941 11 2.97933Z" fill="#CCCCCC"/>
</g>
</g>
</svg>
