<svg width="154" height="36" viewBox="0 0 154 36" fill="none" xmlns="http://www.w3.org/2000/svg">
<path d="M59.38 31.04C58.3 31.34 57.08 31.49 55.72 31.49C54.36 31.49 53.02 31.3 51.7 30.92C51.32 30.8 50.89 30.63 50.41 30.41C49.95 30.17 49.48 29.9 49 29.6C48.52 29.3 48.05 28.98 47.59 28.64C47.15 28.28 46.77 27.91 46.45 27.53L49.99 23.69C51.49 24.75 52.82 25.5 53.98 25.94C55.16 26.38 56.18 26.49 57.04 26.27C57.42 26.19 57.72 26.03 57.94 25.79C58.18 25.53 58.33 25.24 58.39 24.92C58.45 24.62 58.41 24.32 58.27 24.02C58.13 23.7 57.9 23.43 57.58 23.21C57.18 22.95 56.78 22.73 56.38 22.55C56 22.35 55.58 22.15 55.12 21.95C54.66 21.77 54.16 21.56 53.62 21.32C53.08 21.06 52.48 20.75 51.82 20.39C49.9 19.33 48.68 18.07 48.16 16.61C47.64 15.15 47.71 13.77 48.37 12.47C49.03 11.05 50.04 9.97 51.4 9.23C52.78 8.49 54.33 8.12 56.05 8.12C57.73 8.12 59.26 8.42 60.64 9.02C62.04 9.62 63.23 10.44 64.21 11.48L60.73 15.35C59.99 14.73 59.13 14.22 58.15 13.82C57.19 13.4 56.35 13.19 55.63 13.19C55.21 13.19 54.83 13.32 54.49 13.58C54.15 13.82 53.98 14.18 53.98 14.66C53.98 15.14 54.31 15.62 54.97 16.1C55.63 16.56 56.77 17.18 58.39 17.96C60.43 18.9 61.88 19.85 62.74 20.81C63.62 21.77 64.14 22.81 64.3 23.93C64.56 25.55 64.27 27.01 63.43 28.31C62.59 29.61 61.24 30.52 59.38 31.04ZM73.4966 23.99C73.4966 24.63 73.5466 25.11 73.6466 25.43C73.7466 25.75 73.9666 25.97 74.3066 26.09C74.5266 26.17 74.7566 26.2 74.9966 26.18C75.2566 26.16 75.6266 26.06 76.1066 25.88L76.9766 30.47C76.1966 30.83 75.2466 31.06 74.1266 31.16C73.0066 31.26 72.0066 31.13 71.1266 30.77C70.0866 30.35 69.3566 29.67 68.9366 28.73C68.5166 27.79 68.3066 26.53 68.3066 24.95V19.1H65.6066V14.42H68.3066V8.66H73.4966V14.42H76.8566V19.1H73.4966V23.99ZM86.9484 26.57C87.9484 26.57 88.8384 26.25 89.6184 25.61C90.3984 24.95 90.7884 23.96 90.7884 22.64C90.7884 21.38 90.3984 20.41 89.6184 19.73C88.8384 19.05 87.9484 18.71 86.9484 18.71C85.9684 18.71 85.0984 19.05 84.3384 19.73C83.5984 20.41 83.2284 21.38 83.2284 22.64C83.2284 23.96 83.5984 24.95 84.3384 25.61C85.0984 26.25 85.9684 26.57 86.9484 26.57ZM87.0084 31.31C85.6884 31.31 84.4784 31.11 83.3784 30.71C82.2784 30.29 81.3284 29.7 80.5284 28.94C79.7484 28.18 79.1384 27.27 78.6984 26.21C78.2584 25.15 78.0384 23.96 78.0384 22.64C78.0384 21.3 78.2684 20.09 78.7284 19.01C79.2084 17.93 79.8584 17.02 80.6784 16.28C81.4784 15.54 82.4184 14.97 83.4984 14.57C84.5984 14.17 85.7684 13.97 87.0084 13.97C88.2284 13.97 89.3784 14.17 90.4584 14.57C91.5584 14.97 92.5184 15.54 93.3384 16.28C94.1384 17.02 94.7784 17.93 95.2584 19.01C95.7384 20.09 95.9784 21.3 95.9784 22.64C95.9784 23.96 95.7484 25.15 95.2884 26.21C94.8484 27.27 94.2384 28.18 93.4584 28.94C92.6584 29.7 91.7084 30.29 90.6084 30.71C89.5084 31.11 88.3084 31.31 87.0084 31.31ZM97.4922 22.61C97.4922 19.85 98.3122 17.7 99.9522 16.16C101.612 14.6 103.852 13.82 106.672 13.82C107.992 13.82 109.232 14.09 110.392 14.63C111.572 15.15 112.642 15.98 113.602 17.12L110.512 20.66C109.812 19.92 109.172 19.4 108.592 19.1C108.032 18.78 107.362 18.62 106.582 18.62C106.082 18.64 105.592 18.75 105.112 18.95C104.652 19.13 104.242 19.4 103.882 19.76C103.522 20.1 103.232 20.52 103.012 21.02C102.792 21.5 102.682 22.03 102.682 22.61C102.682 23.83 103.082 24.81 103.882 25.55C104.682 26.27 105.602 26.63 106.642 26.63C107.482 26.63 108.202 26.45 108.802 26.09C109.422 25.73 110.032 25.23 110.632 24.59L113.692 28.1C112.792 29.28 111.732 30.13 110.512 30.65C109.292 31.17 108.012 31.43 106.672 31.43C103.912 31.45 101.692 30.72 100.012 29.24C98.3322 27.76 97.4922 25.55 97.4922 22.61ZM120.887 25.94V30.92H115.667V8.66H120.887V19.25L125.387 14.42H131.567L125.627 20.78L132.347 30.92H126.257L122.147 24.56L120.887 25.94ZM134.014 8.66H139.354V17.06H146.974V8.66H152.314V30.92H146.974V21.86H139.354V30.92H134.014V8.66Z" fill="#708FFE"/>
<path d="M0 0H35V35H0V0Z" fill="#708FFE"/>
</svg>
