<svg width="24" height="24" viewBox="0 0 24 24" fill="none" xmlns="http://www.w3.org/2000/svg">
<g id="fluent:list-16-filled">
<path id="Vector" d="M0 4.67189C0 4.32612 0.137357 3.99451 0.381853 3.75002C0.626349 3.50552 0.957958 3.36816 1.30373 3.36816H19.5559C19.9017 3.36816 20.2333 3.50552 20.4778 3.75002C20.7223 3.99451 20.8596 4.32612 20.8596 4.67189C20.8596 5.01766 20.7223 5.34927 20.4778 5.59377C20.2333 5.83826 19.9017 5.97562 19.5559 5.97562L1.30373 5.97562C0.957958 5.97562 0.626349 5.83826 0.381853 5.59377C0.137357 5.34927 0 5.01766 0 4.67189ZM0 18.5783C0 18.2326 0.137357 17.9009 0.381853 17.6565C0.626349 17.412 0.957958 17.2746 1.30373 17.2746H19.5559C19.9017 17.2746 20.2333 17.412 20.4778 17.6565C20.7223 17.9009 20.8596 18.2326 20.8596 18.5783C20.8596 18.9241 20.7223 19.2557 20.4778 19.5002C20.2333 19.7447 19.9017 19.8821 19.5559 19.8821H1.30373C0.957958 19.8821 0.626349 19.7447 0.381853 19.5002C0.137357 19.2557 0 18.9241 0 18.5783ZM1.30373 10.3214C0.957958 10.3214 0.626349 10.4587 0.381853 10.7032C0.137357 10.9477 0 11.2793 0 11.6251C0 11.9709 0.137357 12.3025 0.381853 12.547C0.626349 12.7915 0.957958 12.9288 1.30373 12.9288H19.5559C19.9017 12.9288 20.2333 12.7915 20.4778 12.547C20.7223 12.3025 20.8596 11.9709 20.8596 11.6251C20.8596 11.2793 20.7223 10.9477 20.4778 10.7032C20.2333 10.4587 19.9017 10.3214 19.5559 10.3214H1.30373Z" fill="#708FFE"/>
</g>
</svg>
