<svg width="20" height="20" viewBox="0 0 20 20" fill="none" xmlns="http://www.w3.org/2000/svg">
<g id="fluent:ios-arrow-24-filled">
<path id="Vector" d="M5.94468 16.5323C5.8711 16.6072 5.81358 16.6954 5.7754 16.7918C5.73722 16.8882 5.71912 16.9908 5.72215 17.0939C5.72518 17.197 5.74927 17.2986 5.79305 17.3927C5.83683 17.4868 5.89944 17.5718 5.9773 17.6426C6.05516 17.7135 6.14676 17.7688 6.24685 17.8056C6.34695 17.8424 6.45358 17.8598 6.56066 17.8569C6.66775 17.8539 6.77319 17.8308 6.87097 17.7886C6.96874 17.7464 7.05694 17.6862 7.13051 17.6112L14.0628 10.5439C14.206 10.3981 14.2858 10.2051 14.2858 10.0044C14.2858 9.80381 14.206 9.61078 14.0628 9.46498L7.13052 2.39691C7.05742 2.3203 6.96925 2.25844 6.87111 2.21492C6.77298 2.17139 6.66684 2.14708 6.55886 2.14339C6.45089 2.13969 6.34322 2.15669 6.24213 2.1934C6.14103 2.23011 6.04852 2.28579 5.96997 2.35721C5.89141 2.42863 5.82838 2.51437 5.78453 2.60945C5.74068 2.70453 5.71688 2.80704 5.71453 2.91105C5.71218 3.01505 5.73131 3.11847 5.77082 3.21529C5.81033 3.31212 5.86943 3.40042 5.94468 3.47506L12.3485 10.0044L5.94468 16.5323Z" fill="#B0B0B0"/>
</g>
</svg>
