<svg width="22" height="22" viewBox="0 0 22 22" fill="none" xmlns="http://www.w3.org/2000/svg">
<path d="M15.02 16.61C13.2116 18.0137 10.9361 18.6755 8.65694 18.4606C6.37774 18.2458 4.26606 17.1705 2.75176 15.4536C1.23746 13.7366 0.434357 11.5072 0.50593 9.21898C0.577502 6.93079 1.51837 4.75588 3.13701 3.13695C4.75594 1.51831 6.93085 0.577441 9.21904 0.505869C11.5072 0.434296 13.7367 1.2374 15.4536 2.7517C17.1705 4.266 18.2459 6.37768 18.4607 8.65688C18.6755 10.9361 18.0137 13.2115 16.61 15.02L21.17 19.58C21.3181 19.7175 21.4264 19.8924 21.4834 20.0862C21.5404 20.2801 21.5441 20.4858 21.494 20.6816C21.444 20.8773 21.342 21.056 21.1989 21.1987C21.0559 21.3414 20.8769 21.4429 20.681 21.4925C20.4855 21.5426 20.28 21.5391 20.0862 21.4823C19.8925 21.4256 19.7176 21.3177 19.58 21.17L15.02 16.61ZM16.25 9.49995C16.2634 8.60536 16.0987 7.71704 15.7656 6.88668C15.4324 6.05631 14.9375 5.30048 14.3096 4.66314C13.6817 4.02579 12.9333 3.51967 12.108 3.17421C11.2827 2.82875 10.397 2.65084 9.50226 2.65084C8.60757 2.65084 7.72181 2.82875 6.8965 3.17421C6.0712 3.51967 5.32282 4.02579 4.69491 4.66314C4.067 5.30048 3.57209 6.05631 3.23897 6.88668C2.90585 7.71704 2.74117 8.60536 2.75451 9.49995C2.78094 11.2721 3.50348 12.9628 4.76606 14.2067C6.02863 15.4506 7.72987 16.1478 9.50226 16.1478C11.2747 16.1478 12.9759 15.4506 14.2385 14.2067C15.501 12.9628 16.2236 11.2721 16.25 9.49995Z" fill="#2A2A2A"/>
</svg>
