<svg width="28" height="28" viewBox="0 0 28 28" fill="none" xmlns="http://www.w3.org/2000/svg">
<g id="ion:search">
<path id="Vector" d="M24.9752 23.0448L19.8297 17.8992C21.0685 16.25 21.7373 14.2426 21.735 12.18C21.735 6.91141 17.4486 2.625 12.18 2.625C6.91141 2.625 2.625 6.91141 2.625 12.18C2.625 17.4486 6.91141 21.735 12.18 21.735C14.2426 21.7373 16.25 21.0685 17.8992 19.8297L23.0448 24.9752C23.3052 25.2081 23.645 25.3324 23.9942 25.3226C24.3434 25.3128 24.6756 25.1697 24.9227 24.9227C25.1697 24.6756 25.3128 24.3434 25.3226 23.9942C25.3324 23.645 25.2081 23.3052 24.9752 23.0448ZM5.355 12.18C5.355 10.8301 5.75528 9.5106 6.50522 8.38823C7.25516 7.26587 8.32108 6.39109 9.56819 5.87452C10.8153 5.35795 12.1876 5.2228 13.5115 5.48614C14.8354 5.74948 16.0515 6.3995 17.006 7.354C17.9605 8.30849 18.6105 9.52459 18.8739 10.8485C19.1372 12.1724 19.002 13.5447 18.4855 14.7918C17.9689 16.0389 17.0941 17.1048 15.9718 17.8548C14.8494 18.6047 13.5299 19.005 12.18 19.005C10.3706 19.0028 8.63586 18.2831 7.35639 17.0036C6.07693 15.7241 5.35717 13.9894 5.355 12.18Z" fill="#B0B0B0"/>
</g>
</svg>
