<svg width="18" height="20" viewBox="0 0 18 20" fill="none" xmlns="http://www.w3.org/2000/svg">
<g id="&#240;&#159;&#166;&#134; icon &#34;bell&#34;">
<path id="Vector" d="M14.5026 6.7611C14.5026 5.23316 13.9336 3.7678 12.9206 2.68739C11.9077 1.60697 10.534 1 9.10155 1C7.6691 1 6.29533 1.60697 5.28244 2.68739C4.26955 3.7678 3.70052 5.23316 3.70052 6.7611C3.70052 13.4824 1 15.4028 1 15.4028H17.2031C17.2031 15.4028 14.5026 13.4824 14.5026 6.7611Z" stroke="black" stroke-linecap="round" stroke-linejoin="round"/>
<path id="Vector_2" d="M10.6588 18.103C10.5005 18.3759 10.2734 18.6024 10 18.7597C9.72675 18.9171 9.41691 19 9.10149 19C8.78607 19 8.47623 18.9171 8.20293 18.7597C7.92964 18.6024 7.70244 18.3759 7.54419 18.103" stroke="black" stroke-linecap="round" stroke-linejoin="round"/>
</g>
</svg>
