<svg width="24" height="24" viewBox="0 0 24 24" fill="none" xmlns="http://www.w3.org/2000/svg">
<g id="bitcoin-icons:search-filled">
<g id="Group">
<path id="Vector" fill-rule="evenodd" clip-rule="evenodd" d="M10.4584 5.30822C9.09254 5.30822 7.78258 5.85082 6.81675 6.81666C5.85091 7.78249 5.30831 9.09245 5.30831 10.4583C5.30831 11.8242 5.85091 13.1342 6.81675 14.1C7.78258 15.0659 9.09254 15.6085 10.4584 15.6085C11.8243 15.6085 13.1343 15.0659 14.1001 14.1C15.066 13.1342 15.6086 11.8242 15.6086 10.4583C15.6086 9.09245 15.066 7.78249 14.1001 6.81666C13.1343 5.85082 11.8243 5.30822 10.4584 5.30822ZM3.76328 10.4583C3.76328 8.68268 4.46866 6.97974 5.72424 5.72415C6.97983 4.46856 8.68277 3.76318 10.4584 3.76318C12.2341 3.76318 13.937 4.46856 15.1926 5.72415C16.4482 6.97974 17.1536 8.68268 17.1536 10.4583C17.1536 12.234 16.4482 13.937 15.1926 15.1925C13.937 16.4481 12.2341 17.1535 10.4584 17.1535C8.68277 17.1535 6.97983 16.4481 5.72424 15.1925C4.46866 13.937 3.76328 12.234 3.76328 10.4583Z" fill="#2A2A2A"/>
<path id="Vector_2" fill-rule="evenodd" clip-rule="evenodd" d="M14.5476 14.5477C14.6925 14.403 14.8888 14.3218 15.0935 14.3218C15.2982 14.3218 15.4946 14.403 15.6394 14.5477L19.7595 18.6678C19.8354 18.7385 19.8963 18.8238 19.9385 18.9186C19.9808 19.0133 20.0035 19.1156 20.0053 19.2194C20.0071 19.3231 19.988 19.4261 19.9492 19.5223C19.9103 19.6185 19.8525 19.7059 19.7791 19.7792C19.7058 19.8526 19.6184 19.9104 19.5222 19.9493C19.426 19.9881 19.323 20.0072 19.2193 20.0054C19.1155 20.0036 19.0132 19.9808 18.9185 19.9386C18.8237 19.8964 18.7384 19.8355 18.6677 19.7596L14.5476 15.6395C14.4029 15.4947 14.3217 15.2983 14.3217 15.0936C14.3217 14.8889 14.4029 14.6926 14.5476 14.5477Z" fill="#2A2A2A"/>
</g>
</g>
</svg>
