<svg width="24" height="24" viewBox="0 0 24 24" fill="none" xmlns="http://www.w3.org/2000/svg">
<g id="octicon:person-24">
<path id="Vector" d="M12 3.21387C13.0878 3.21353 14.1471 3.56191 15.0223 4.20785C15.8976 4.8538 16.5427 5.7633 16.8631 6.80286C17.1834 7.84243 17.1621 8.9573 16.8022 9.98385C16.4424 11.0104 15.7629 11.8946 14.8636 12.5066C16.4245 13.0791 17.7784 14.1057 18.751 15.4542C19.7235 16.8027 20.2702 18.4115 20.3206 20.0734C20.3253 20.1656 20.3116 20.2579 20.2802 20.3447C20.2488 20.4316 20.2003 20.5113 20.1377 20.5792C20.075 20.6471 19.9995 20.7018 19.9154 20.74C19.8314 20.7783 19.7405 20.7995 19.6482 20.8022C19.5559 20.8049 19.4639 20.7891 19.3778 20.7558C19.2916 20.7225 19.213 20.6724 19.1465 20.6083C19.08 20.5442 19.0269 20.4674 18.9905 20.3826C18.954 20.2977 18.9349 20.2064 18.9342 20.1141C18.8791 18.3118 18.1244 16.6018 16.8301 15.3465C15.5358 14.0911 13.8036 13.389 12.0005 13.389C10.1974 13.389 8.46515 14.0911 7.17084 15.3465C5.87654 16.6018 5.12188 18.3118 5.0668 20.1141C5.06129 20.298 4.98291 20.4723 4.84891 20.5985C4.71492 20.7247 4.53628 20.7925 4.3523 20.7869C4.16832 20.7814 3.99407 20.703 3.86788 20.569C3.74169 20.435 3.6739 20.2564 3.67942 20.0724C3.73006 18.4107 4.27682 16.8022 5.24935 15.4538C6.22187 14.1055 7.57565 13.079 9.13646 12.5066C8.23715 11.8946 7.55769 11.0104 7.19783 9.98385C6.83796 8.9573 6.81663 7.84243 7.13698 6.80286C7.45732 5.7633 8.10246 4.8538 8.97771 4.20785C9.85296 3.56191 10.9122 3.21353 12 3.21387ZM8.30033 8.30094C8.30033 9.28216 8.69012 10.2232 9.38395 10.917C10.0778 11.6108 11.0188 12.0006 12 12.0006C12.9812 12.0006 13.9223 11.6108 14.6161 10.917C15.3099 10.2232 15.6997 9.28216 15.6997 8.30094C15.6997 7.31972 15.3099 6.37869 14.6161 5.68487C13.9223 4.99104 12.9812 4.60125 12 4.60125C11.0188 4.60125 10.0778 4.99104 9.38395 5.68487C8.69012 6.37869 8.30033 7.31972 8.30033 8.30094Z" fill="#2A2A2A"/>
</g>
</svg>
