<svg width="40" height="40" viewBox="0 0 40 40" fill="none" xmlns="http://www.w3.org/2000/svg">
<g id="fluent:ios-arrow-24-filled">
<path id="Vector" d="M5.03527 10.5375C4.86352 10.3658 4.66149 10.2316 4.44071 10.1425C4.21992 10.0534 3.98472 10.0112 3.74851 10.0182C3.51231 10.0253 3.27973 10.0815 3.06406 10.1837C2.84839 10.2858 2.65386 10.4319 2.49156 10.6136C2.32926 10.7953 2.20238 11.009 2.11816 11.2425C2.03395 11.4761 1.99404 11.7249 2.00072 11.9748C2.0074 12.2246 2.06054 12.4707 2.15711 12.6988C2.25367 12.9269 2.39177 13.1327 2.56352 13.3044L18.754 29.4798C19.088 29.8139 19.5302 30 19.9899 30C20.4495 30 20.8918 29.8139 21.2258 29.4798L37.4181 13.3044C37.5936 13.1339 37.7353 12.9281 37.835 12.6991C37.9347 12.4702 37.9904 12.2225 37.9989 11.9706C38.0073 11.7186 37.9684 11.4674 37.8843 11.2315C37.8002 10.9956 37.6726 10.7798 37.509 10.5965C37.3454 10.4132 37.149 10.2661 36.9312 10.1638C36.7133 10.0615 36.4785 10.0059 36.2402 10.0005C36.002 9.99496 35.765 10.0396 35.5432 10.1318C35.3214 10.224 35.1191 10.3619 34.9481 10.5375L19.9899 25.4797L5.03527 10.5375Z" fill="#B0B0B0"/>
</g>
</svg>
